<?xml version="1.0" encoding="UTF-8"?>
<!DOCTYPE svg PUBLIC "-//W3C//DTD SVG 1.1//EN" "http://www.w3.org/Graphics/SVG/1.1/DTD/svg11.dtd">
<svg xmlns="http://www.w3.org/2000/svg" version="1.1" width="500px" height="500px" style="shape-rendering:geometricPrecision; text-rendering:geometricPrecision; image-rendering:optimizeQuality; fill-rule:evenodd; clip-rule:evenodd" xmlns:xlink="http://www.w3.org/1999/xlink">
<g><path style="opacity:1" fill="#eadfc6" d="M 291.5,165.5 C 290.698,164.048 290.198,162.382 290,160.5C 289.751,161.624 289.251,162.624 288.5,163.5C 286.481,161.81 284.481,160.144 282.5,158.5C 281.531,157.691 280.698,156.691 280,155.5C 278.581,156.46 277.081,157.293 275.5,158C 274.745,160.133 273.412,161.8 271.5,163C 274.413,162.71 277.413,162.543 280.5,162.5C 280.263,161.209 280.596,160.209 281.5,159.5C 283.416,160.665 284.249,162.332 284,164.5C 278.751,162.658 274.084,163.658 270,167.5C 269.517,166.552 269.351,165.552 269.5,164.5C 273.465,153.013 280.465,150.846 290.5,158C 292.167,160.333 294.167,162.333 296.5,164C 294.975,165.009 293.308,165.509 291.5,165.5 Z"/></g>
<g><path style="opacity:1" fill="#fefffe" d="M 293.5,155.5 C 294.833,156.167 294.833,156.167 293.5,155.5 Z"/></g>
<g><path style="opacity:0.996" fill="#fdfdfd" d="M 297.5,161.5 C 297.897,160.475 298.563,160.308 299.5,161C 298.906,161.464 298.239,161.631 297.5,161.5 Z"/></g>
<g><path style="opacity:1" fill="#fefffe" d="M 301.5,161.5 C 302.833,162.167 302.833,162.167 301.5,161.5 Z"/></g>
<g><path style="opacity:1" fill="#e4e5d0" d="M 300.5,170.5 C 298.983,170.511 297.816,171.177 297,172.5C 296.59,171.099 296.09,169.766 295.5,168.5C 296.315,167.571 297.148,166.571 298,165.5C 300.29,166.828 301.124,168.495 300.5,170.5 Z"/></g>
<g><path style="opacity:1" fill="#3a3a3c" d="M 297.5,161.5 C 299.146,163.812 301.146,165.812 303.5,167.5C 307.315,164.424 311.648,162.757 316.5,162.5C 316.804,163.15 317.137,163.817 317.5,164.5C 313.255,165.624 309.255,167.29 305.5,169.5C 303.883,170.038 302.216,170.371 300.5,170.5C 301.124,168.495 300.29,166.828 298,165.5C 297.148,166.571 296.315,167.571 295.5,168.5C 294.26,167.341 292.926,166.341 291.5,165.5C 293.308,165.509 294.975,165.009 296.5,164C 294.167,162.333 292.167,160.333 290.5,158C 280.465,150.846 273.465,153.013 269.5,164.5C 269.672,163.508 269.338,162.842 268.5,162.5C 271.605,151.788 278.272,148.955 288.5,154C 291.665,156.335 294.665,158.835 297.5,161.5 Z"/></g>
<g><path style="opacity:1" fill="#f8d8a1" d="M 282.5,158.5 C 281.833,158.5 281.5,158.833 281.5,159.5C 280.596,160.209 280.263,161.209 280.5,162.5C 277.413,162.543 274.413,162.71 271.5,163C 273.412,161.8 274.745,160.133 275.5,158C 277.081,157.293 278.581,156.46 280,155.5C 280.698,156.691 281.531,157.691 282.5,158.5 Z"/></g>
<g><path style="opacity:1" fill="#aba69b" d="M 305.5,169.5 C 303.5,171.5 301.5,173.5 299.5,175.5C 299.366,173.708 299.699,172.042 300.5,170.5C 302.216,170.371 303.883,170.038 305.5,169.5 Z"/></g>
<g><path style="opacity:1" fill="#aaaba1" d="M 338.5,171.5 C 339.906,171.973 340.573,172.973 340.5,174.5C 339.094,174.027 338.427,173.027 338.5,171.5 Z"/></g>
<g><path style="opacity:1" fill="#000612" d="M 322.5,170.5 C 323.833,170.5 325.167,170.5 326.5,170.5C 326.938,170.435 327.272,170.601 327.5,171C 325.842,171.725 325.342,172.892 326,174.5C 327.049,173.483 328.216,173.316 329.5,174C 329.507,175.583 329.174,177.249 328.5,179C 329.449,179.617 330.282,179.451 331,178.5C 332.746,181.603 333.246,184.769 332.5,188C 333.094,188.464 333.761,188.631 334.5,188.5C 334.17,191.109 332.67,192.776 330,193.5C 329.505,195.473 329.338,197.473 329.5,199.5C 326.171,199.264 323.171,200.097 320.5,202C 323.114,201.468 325.78,201.135 328.5,201C 327.558,204.248 326.225,204.748 324.5,202.5C 323.205,203.098 321.872,203.598 320.5,204C 322.645,204.743 322.811,205.576 321,206.5C 318.527,207.517 316.027,207.517 313.5,206.5C 313.027,205.094 312.027,204.427 310.5,204.5C 307.996,200.172 304.996,196.172 301.5,192.5C 301.826,186.32 304.826,181.82 310.5,179C 310.112,177.192 310.112,175.525 310.5,174C 312.112,173.28 313.612,173.446 315,174.5C 316.9,172.137 319.4,170.804 322.5,170.5 Z"/></g>
<g><path style="opacity:0.504" fill="#e7e7e4" d="M 342.5,178.5 C 344.698,178.409 345.031,179.075 343.5,180.5C 342.662,180.158 342.328,179.492 342.5,178.5 Z"/></g>
<g><path style="opacity:1" fill="#1c1d1f" d="M 338.5,171.5 C 338.427,173.027 339.094,174.027 340.5,174.5C 341.674,175.514 342.34,176.847 342.5,178.5C 342.328,179.492 342.662,180.158 343.5,180.5C 344.434,181.568 344.768,182.901 344.5,184.5C 344.232,186.099 344.566,187.432 345.5,188.5C 345.5,189.833 345.5,191.167 345.5,192.5C 344.549,193.919 344.216,195.585 344.5,197.5C 342.882,199.656 343.216,201.323 345.5,202.5C 345.833,203.167 346.167,203.833 346.5,204.5C 345.178,204.67 344.011,204.337 343,203.5C 341.89,205.037 340.39,205.703 338.5,205.5C 338.66,203.847 339.326,202.514 340.5,201.5C 342.461,199.68 342.794,197.68 341.5,195.5C 342.388,192.946 342.721,190.279 342.5,187.5C 341.167,187.5 339.833,187.5 338.5,187.5C 339.946,185.42 340.946,183.087 341.5,180.5C 339.184,175.529 335.85,171.529 331.5,168.5C 328.212,166.192 324.545,165.025 320.5,165C 327.333,167.167 331.833,171.667 334,178.5C 334.278,177.584 334.778,176.918 335.5,176.5C 336.344,180.099 336.677,183.766 336.5,187.5C 335.683,185.031 335.183,182.365 335,179.5C 334.502,182.482 334.335,185.482 334.5,188.5C 333.761,188.631 333.094,188.464 332.5,188C 333.246,184.769 332.746,181.603 331,178.5C 330.282,179.451 329.449,179.617 328.5,179C 329.174,177.249 329.507,175.583 329.5,174C 328.216,173.316 327.049,173.483 326,174.5C 325.342,172.892 325.842,171.725 327.5,171C 327.272,170.601 326.938,170.435 326.5,170.5C 322.897,167.027 318.564,165.86 313.5,167C 312.359,167.741 312.359,168.575 313.5,169.5C 316.603,169.654 319.603,169.987 322.5,170.5C 319.4,170.804 316.9,172.137 315,174.5C 313.612,173.446 312.112,173.28 310.5,174C 310.112,175.525 310.112,177.192 310.5,179C 304.826,181.82 301.826,186.32 301.5,192.5C 297.075,190.621 295.075,187.288 295.5,182.5C 297.083,180.337 298.416,178.004 299.5,175.5C 301.5,173.5 303.5,171.5 305.5,169.5C 309.255,167.29 313.255,165.624 317.5,164.5C 317.137,163.817 316.804,163.15 316.5,162.5C 325.365,161.595 332.698,164.595 338.5,171.5 Z"/></g>
<g><path style="opacity:1" fill="#e9e3d2" d="M 306.5,170.5 C 308.103,170.312 309.437,170.812 310.5,172C 305.862,176.472 302.196,181.639 299.5,187.5C 298.398,184.81 298.564,182.143 300,179.5C 301.611,176.062 303.777,173.062 306.5,170.5 Z"/></g>
<g><path style="opacity:1" fill="#ebe3d2" d="M 331.5,168.5 C 335.85,171.529 339.184,175.529 341.5,180.5C 340.946,183.087 339.946,185.42 338.5,187.5C 337.452,189.933 336.786,189.933 336.5,187.5C 336.677,183.766 336.344,180.099 335.5,176.5C 334.055,173.882 332.389,171.382 330.5,169C 330.728,168.601 331.062,168.435 331.5,168.5 Z"/></g>
<g><path style="opacity:1" fill="#91938a" d="M 331.5,168.5 C 331.062,168.435 330.728,168.601 330.5,169C 332.389,171.382 334.055,173.882 335.5,176.5C 334.778,176.918 334.278,177.584 334,178.5C 331.833,171.667 327.333,167.167 320.5,165C 324.545,165.025 328.212,166.192 331.5,168.5 Z"/></g>
<g><path style="opacity:1" fill="#e5e6d8" d="M 326.5,170.5 C 325.167,170.5 323.833,170.5 322.5,170.5C 319.603,169.987 316.603,169.654 313.5,169.5C 312.359,168.575 312.359,167.741 313.5,167C 318.564,165.86 322.897,167.027 326.5,170.5 Z"/></g>
<g><path style="opacity:1" fill="#44547a" d="M 299.5,175.5 C 298.416,178.004 297.083,180.337 295.5,182.5C 295.555,179.386 296.888,177.052 299.5,175.5 Z"/></g>
<g><path style="opacity:1" fill="#344659" d="M 266.5,187.5 C 266.108,184.676 266.108,181.676 266.5,178.5C 267.302,179.952 267.802,181.618 268,183.5C 268.333,179.167 268.667,174.833 269,170.5C 269.667,175.833 269.667,181.167 269,186.5C 268.329,187.252 267.496,187.586 266.5,187.5 Z"/></g>
<g><path style="opacity:0.669" fill="#f7f8f8" d="M 344.5,184.5 C 346.745,185.292 347.078,186.625 345.5,188.5C 344.566,187.432 344.232,186.099 344.5,184.5 Z"/></g>
<g><path style="opacity:1" fill="#dcd5bd" d="M 293.5,187.5 C 295.799,189.994 298.133,192.494 300.5,195C 300,195.5 299.5,196 299,196.5C 297.483,194.76 295.983,193.094 294.5,191.5C 292.5,191.5 291.5,190.5 291.5,188.5C 292.167,188.167 292.833,187.833 293.5,187.5 Z"/></g>
<g><path style="opacity:1" fill="#656762" d="M 295.5,182.5 C 295.075,187.288 297.075,190.621 301.5,192.5C 304.996,196.172 307.996,200.172 310.5,204.5C 306.877,202.946 304.377,200.279 303,196.5C 301.324,197.061 299.991,198.061 299,199.5C 296.016,197.293 295.85,197.793 298.5,201C 298,201.5 297.5,202 297,202.5C 295.223,200.21 293.056,198.543 290.5,197.5C 287.858,195.738 288.025,195.405 291,196.5C 292.587,195.154 292.42,193.821 290.5,192.5C 291.822,192.33 292.989,192.663 294,193.5C 294.464,192.906 294.631,192.239 294.5,191.5C 295.983,193.094 297.483,194.76 299,196.5C 299.5,196 300,195.5 300.5,195C 298.133,192.494 295.799,189.994 293.5,187.5C 293.796,185.597 294.463,183.93 295.5,182.5 Z"/></g>
<g><path style="opacity:1" fill="#070e18" d="M 336.5,187.5 C 336.786,189.933 337.452,189.933 338.5,187.5C 339.833,187.5 341.167,187.5 342.5,187.5C 342.721,190.279 342.388,192.946 341.5,195.5C 341.167,197.5 340.833,199.5 340.5,201.5C 339.326,202.514 338.66,203.847 338.5,205.5C 337.094,205.973 336.427,206.973 336.5,208.5C 336.585,209.995 335.919,210.995 334.5,211.5C 334.089,210.738 333.923,209.738 334,208.5C 331.635,209.289 329.468,210.456 327.5,212C 325.257,212.797 323.923,212.63 323.5,211.5C 325.399,209.537 327.733,208.037 330.5,207C 330.272,206.601 329.938,206.435 329.5,206.5C 330.429,205.685 331.429,204.852 332.5,204C 326.939,204.636 322.605,207.302 319.5,212C 317.833,212.167 316.167,212.333 314.5,212.5C 312.359,212.387 310.525,211.72 309,210.5C 307.951,212.107 306.451,212.773 304.5,212.5C 304.539,210.641 303.706,209.308 302,208.5C 301.192,206.421 301.359,204.421 302.5,202.5C 303.189,204.331 304.356,206.331 306,208.5C 306.333,207.167 306.667,205.833 307,204.5C 307.748,206.332 308.748,207.999 310,209.5C 311.417,208.922 312.25,207.922 312.5,206.5C 312.833,206.5 313.167,206.5 313.5,206.5C 316.027,207.517 318.527,207.517 321,206.5C 322.811,205.576 322.645,204.743 320.5,204C 321.872,203.598 323.205,203.098 324.5,202.5C 326.225,204.748 327.558,204.248 328.5,201C 325.78,201.135 323.114,201.468 320.5,202C 323.171,200.097 326.171,199.264 329.5,199.5C 329.338,197.473 329.505,195.473 330,193.5C 332.67,192.776 334.17,191.109 334.5,188.5C 334.335,185.482 334.502,182.482 335,179.5C 335.183,182.365 335.683,185.031 336.5,187.5 Z"/></g>
<g><path style="opacity:1" fill="#131518" d="M 281.5,159.5 C 281.5,158.833 281.833,158.5 282.5,158.5C 284.481,160.144 286.481,161.81 288.5,163.5C 289.251,162.624 289.751,161.624 290,160.5C 290.198,162.382 290.698,164.048 291.5,165.5C 292.926,166.341 294.26,167.341 295.5,168.5C 296.09,169.766 296.59,171.099 297,172.5C 297.816,171.177 298.983,170.511 300.5,170.5C 299.699,172.042 299.366,173.708 299.5,175.5C 296.888,177.052 295.555,179.386 295.5,182.5C 294.463,183.93 293.796,185.597 293.5,187.5C 292.833,187.833 292.167,188.167 291.5,188.5C 291.5,190.5 292.5,191.5 294.5,191.5C 294.631,192.239 294.464,192.906 294,193.5C 292.989,192.663 291.822,192.33 290.5,192.5C 287.903,192.279 287.903,191.779 290.5,191C 286.191,189.802 282.524,190.802 279.5,194C 281.619,194.098 283.286,194.931 284.5,196.5C 282.228,197.485 279.895,198.319 277.5,199C 276.809,200.067 276.309,201.234 276,202.5C 274.301,201.594 272.467,201.261 270.5,201.5C 270.573,199.973 269.906,198.973 268.5,198.5C 267.513,195.287 266.513,191.954 265.5,188.5C 265.624,187.893 265.957,187.56 266.5,187.5C 267.496,187.586 268.329,187.252 269,186.5C 269.667,181.167 269.667,175.833 269,170.5C 268.667,174.833 268.333,179.167 268,183.5C 267.802,181.618 267.302,179.952 266.5,178.5C 265.861,177.903 265.528,177.07 265.5,176C 266.332,171.326 267.332,166.826 268.5,162.5C 269.338,162.842 269.672,163.508 269.5,164.5C 269.351,165.552 269.517,166.552 270,167.5C 274.084,163.658 278.751,162.658 284,164.5C 284.249,162.332 283.416,160.665 281.5,159.5 Z"/></g>
<g><path style="opacity:1" fill="#efdec0" d="M 291.5,188.5 C 287.032,188.593 282.699,189.093 278.5,190C 279.833,188.667 281.167,187.333 282.5,186C 280.576,185.821 278.909,185.654 277.5,185.5C 278.357,184.575 279.357,183.908 280.5,183.5C 283.397,183.875 286.063,183.375 288.5,182C 287.975,181.308 287.308,180.808 286.5,180.5C 284.47,181.172 282.47,181.838 280.5,182.5C 275.487,183.582 275.487,182.749 280.5,180C 283.5,179.333 286.5,179.333 289.5,180C 290.576,181.726 290.743,183.559 290,185.5C 288.703,184.216 287.536,184.383 286.5,186C 288.744,186.05 290.411,186.883 291.5,188.5 Z"/></g>
<g><path style="opacity:1" fill="#f9e18f" d="M 280.5,183.5 C 280.5,183.167 280.5,182.833 280.5,182.5C 282.47,181.838 284.47,181.172 286.5,180.5C 287.308,180.808 287.975,181.308 288.5,182C 286.063,183.375 283.397,183.875 280.5,183.5 Z"/></g>
<g><path style="opacity:1" fill="#f3dbb1" d="M 278.5,166.5 C 286.829,166.119 290.329,170.119 289,178.5C 286.859,177.232 284.526,176.565 282,176.5C 278.449,177.361 274.949,178.361 271.5,179.5C 270.843,173.505 273.177,169.172 278.5,166.5 Z"/></g>
<g><path style="opacity:0.669" fill="#fafafb" d="M 345.5,192.5 C 345.938,192.435 346.272,192.601 346.5,193C 345.901,194.622 345.234,196.122 344.5,197.5C 344.216,195.585 344.549,193.919 345.5,192.5 Z"/></g>
<g><path style="opacity:1" fill="#9fb0bd" d="M 341.5,195.5 C 342.794,197.68 342.461,199.68 340.5,201.5C 340.833,199.5 341.167,197.5 341.5,195.5 Z"/></g>
<g><path style="opacity:1" fill="#fefffe" d="M 264.5,200.5 C 265.833,201.167 265.833,201.167 264.5,200.5 Z"/></g>
<g><path style="opacity:1" fill="#fefffe" d="M 345.5,201.5 C 346.833,202.167 346.833,202.167 345.5,201.5 Z"/></g>
<g><path style="opacity:1" fill="#ead7b1" d="M 290.5,192.5 C 292.42,193.821 292.587,195.154 291,196.5C 288.025,195.405 287.858,195.738 290.5,197.5C 294.38,201.215 297.713,205.381 300.5,210C 299.833,210.667 299.167,210.667 298.5,210C 296.63,207.96 294.63,206.127 292.5,204.5C 291.597,202.38 290.263,202.046 288.5,203.5C 285.587,199.633 282.587,199.633 279.5,203.5C 278.527,205.292 279.194,206.625 281.5,207.5C 282.458,207.047 283.292,206.381 284,205.5C 284.101,208.7 284.768,211.7 286,214.5C 286.333,213.833 286.667,213.167 287,212.5C 287.76,214.497 288.26,216.163 288.5,217.5C 289.833,215.5 291.5,213.833 293.5,212.5C 291.964,209.464 289.631,207.297 286.5,206C 287.044,205.283 287.711,204.783 288.5,204.5C 288.973,205.906 289.973,206.573 291.5,206.5C 293.604,208.372 294.937,210.705 295.5,213.5C 294.094,213.973 293.427,214.973 293.5,216.5C 291.251,217.08 289.585,218.413 288.5,220.5C 286.46,221.519 284.46,221.519 282.5,220.5C 283.826,220.795 285.159,220.295 286.5,219C 284.606,215.604 281.939,213.104 278.5,211.5C 277.5,211.833 276.833,212.5 276.5,213.5C 277.803,215.968 279.303,218.301 281,220.5C 281.579,221.928 281.412,223.262 280.5,224.5C 278.015,225.26 278.015,226.26 280.5,227.5C 279.19,229.148 277.857,230.814 276.5,232.5C 275.893,232.376 275.56,232.043 275.5,231.5C 273.49,229.165 271.49,226.832 269.5,224.5C 270.167,223.5 270.833,222.5 271.5,221.5C 270.674,220.549 270.508,219.549 271,218.5C 272.046,220.09 273.213,221.59 274.5,223C 275.483,223.591 276.15,223.257 276.5,222C 273.645,218.725 272.978,215.058 274.5,211C 273.362,208.955 271.695,208.288 269.5,209C 270.451,209.718 270.617,210.551 270,211.5C 267.815,209.46 265.315,208.126 262.5,207.5C 264.362,206.608 266.362,206.441 268.5,207C 267.549,206.282 267.383,205.449 268,204.5C 270.064,205.591 272.231,205.758 274.5,205C 272.913,204.138 271.246,203.471 269.5,203C 270.056,202.617 270.389,202.117 270.5,201.5C 272.467,201.261 274.301,201.594 276,202.5C 276.309,201.234 276.809,200.067 277.5,199C 279.895,198.319 282.228,197.485 284.5,196.5C 283.286,194.931 281.619,194.098 279.5,194C 282.524,190.802 286.191,189.802 290.5,191C 287.903,191.779 287.903,192.279 290.5,192.5 Z"/></g>
<g><path style="opacity:1" fill="#1e180c" d="M 279.5,203.5 C 280.6,204.605 281.267,205.938 281.5,207.5C 279.194,206.625 278.527,205.292 279.5,203.5 Z"/></g>
<g><path style="opacity:1" fill="#7e6b3e" d="M 292.5,204.5 C 292.167,205.167 291.833,205.833 291.5,206.5C 289.973,206.573 288.973,205.906 288.5,204.5C 288.5,204.167 288.5,203.833 288.5,203.5C 290.263,202.046 291.597,202.38 292.5,204.5 Z"/></g>
<g><path style="opacity:0.504" fill="#f9fafa" d="M 349.5,206.5 C 350.833,206.5 351.5,207.167 351.5,208.5C 350.5,208.167 349.833,207.5 349.5,206.5 Z"/></g>
<g><path style="opacity:1" fill="#fefffe" d="M 243.5,208.5 C 244.833,209.167 244.833,209.167 243.5,208.5 Z"/></g>
<g><path style="opacity:1" fill="#f4d695" d="M 288.5,203.5 C 288.5,203.833 288.5,204.167 288.5,204.5C 287.711,204.783 287.044,205.283 286.5,206C 289.631,207.297 291.964,209.464 293.5,212.5C 291.5,213.833 289.833,215.5 288.5,217.5C 288.26,216.163 287.76,214.497 287,212.5C 286.667,213.167 286.333,213.833 286,214.5C 284.768,211.7 284.101,208.7 284,205.5C 283.292,206.381 282.458,207.047 281.5,207.5C 281.267,205.938 280.6,204.605 279.5,203.5C 282.587,199.633 285.587,199.633 288.5,203.5 Z"/></g>
<g><path style="opacity:1" fill="#eae2c7" d="M 351.5,210.5 C 352.167,211.167 352.833,211.833 353.5,212.5C 350.061,212.253 346.728,212.586 343.5,213.5C 341.377,208.989 342.711,207.155 347.5,208C 348.984,208.662 350.317,209.496 351.5,210.5 Z"/></g>
<g><path style="opacity:1" fill="#242424" d="M 268.5,198.5 C 269.906,198.973 270.573,199.973 270.5,201.5C 270.389,202.117 270.056,202.617 269.5,203C 271.246,203.471 272.913,204.138 274.5,205C 272.231,205.758 270.064,205.591 268,204.5C 267.383,205.449 267.549,206.282 268.5,207C 266.362,206.441 264.362,206.608 262.5,207.5C 265.315,208.126 267.815,209.46 270,211.5C 270.617,210.551 270.451,209.718 269.5,209C 271.695,208.288 273.362,208.955 274.5,211C 272.978,215.058 273.645,218.725 276.5,222C 276.15,223.257 275.483,223.591 274.5,223C 273.213,221.59 272.046,220.09 271,218.5C 270.508,219.549 270.674,220.549 271.5,221.5C 270.833,222.5 270.167,223.5 269.5,224.5C 271.49,226.832 273.49,229.165 275.5,231.5C 273.692,232.317 272.192,231.65 271,229.5C 270.536,230.094 270.369,230.761 270.5,231.5C 269.696,229.811 268.696,228.145 267.5,226.5C 268.803,224.411 268.303,222.744 266,221.5C 265.779,224.943 264.779,225.276 263,222.5C 262.833,222.833 262.667,223.167 262.5,223.5C 264.19,225.519 265.856,227.519 267.5,229.5C 266.833,229.5 266.5,229.833 266.5,230.5C 265.115,228.117 263.115,226.45 260.5,225.5C 259.976,223.694 259.309,222.028 258.5,220.5C 259.899,218.555 259.899,217.555 258.5,217.5C 258.167,217.5 257.833,217.5 257.5,217.5C 257.423,216.25 256.756,215.417 255.5,215C 253.187,214.338 250.854,213.838 248.5,213.5C 248.5,214.5 248.5,215.5 248.5,216.5C 247.662,216.158 247.328,215.492 247.5,214.5C 246.151,213.203 244.818,213.37 243.5,215C 244.416,215.278 245.082,215.778 245.5,216.5C 245.557,217.609 245.89,218.609 246.5,219.5C 245.153,218.972 243.819,218.805 242.5,219C 247.44,223.432 251.773,228.265 255.5,233.5C 256.63,235.315 257.296,237.315 257.5,239.5C 253.866,235.589 250.699,231.256 248,226.5C 241.498,220.062 233.331,216.229 223.5,215C 219.642,214.19 215.976,214.357 212.5,215.5C 209.988,213.821 207.988,214.155 206.5,216.5C 205.637,215.537 204.97,215.537 204.5,216.5C 205.374,218.747 205.708,221.08 205.5,223.5C 205.598,225.553 204.931,227.22 203.5,228.5C 202.167,229.167 201.167,230.167 200.5,231.5C 198.238,232.345 197.571,233.678 198.5,235.5C 196.806,236.686 195.139,236.519 193.5,235C 193.833,234.667 194.167,234.333 194.5,234C 193.251,233.26 192.251,233.427 191.5,234.5C 190.29,234.932 189.29,235.599 188.5,236.5C 186.821,236.285 185.821,236.952 185.5,238.5C 183.833,238.5 182.167,238.5 180.5,238.5C 178.938,238.267 177.605,237.6 176.5,236.5C 176.5,235.5 176.5,234.5 176.5,233.5C 178.366,234.014 180.2,234.68 182,235.5C 182.5,235.167 183,234.833 183.5,234.5C 182.52,233.019 181.353,231.685 180,230.5C 179.333,229.833 179.333,229.167 180,228.5C 182.653,231.194 185.82,232.027 189.5,231C 188.276,228.61 187.776,226.11 188,223.5C 189.001,226.173 190.501,228.507 192.5,230.5C 192.906,229.443 192.906,228.109 192.5,226.5C 193.429,227.936 194.595,229.269 196,230.5C 197.27,228.227 196.77,226.061 194.5,224C 195.167,223.333 195.833,223.333 196.5,224C 197.675,227.691 199.508,228.191 202,225.5C 203.504,221.961 203.837,218.295 203,214.5C 201.384,213.199 199.884,213.199 198.5,214.5C 196.5,214.833 194.5,215.167 192.5,215.5C 190.302,215.591 189.969,214.925 191.5,213.5C 195.849,212.219 200.349,211.219 205,210.5C 214.102,211.802 223.269,212.969 232.5,214C 235.279,214.561 237.946,215.394 240.5,216.5C 241.401,215.71 242.068,214.71 242.5,213.5C 242.5,213.167 242.5,212.833 242.5,212.5C 244.992,210.209 247.492,207.876 250,205.5C 253.514,204.205 257.014,204.205 260.5,205.5C 264.522,204.521 267.189,202.188 268.5,198.5 Z"/></g>
<g><path style="opacity:0.5" fill="#fdfdfd" d="M 242.5,212.5 C 241.475,212.103 241.308,211.437 242,210.5C 242.464,211.094 242.631,211.761 242.5,212.5 Z"/></g>
<g><path style="opacity:1" fill="#ebe2d2" d="M 262.5,207.5 C 264.873,208.378 265.706,210.045 265,212.5C 262.34,211.166 259.506,210.332 256.5,210C 257.955,207.984 259.955,207.151 262.5,207.5 Z"/></g>
<g><path style="opacity:1" fill="#eae7e2" d="M 250.5,207.5 C 251.978,207.238 253.311,207.571 254.5,208.5C 252.092,209.453 249.925,210.787 248,212.5C 247.751,210.332 248.584,208.665 250.5,207.5 Z"/></g>
<g><path style="opacity:1" fill="#070c11" d="M 310.5,204.5 C 310.833,205.5 311.5,206.167 312.5,206.5C 312.25,207.922 311.417,208.922 310,209.5C 308.748,207.999 307.748,206.332 307,204.5C 306.667,205.833 306.333,207.167 306,208.5C 304.356,206.331 303.189,204.331 302.5,202.5C 301.359,204.421 301.192,206.421 302,208.5C 303.706,209.308 304.539,210.641 304.5,212.5C 306.451,212.773 307.951,212.107 309,210.5C 310.525,211.72 312.359,212.387 314.5,212.5C 316.167,212.333 317.833,212.167 319.5,212C 322.605,207.302 326.939,204.636 332.5,204C 331.429,204.852 330.429,205.685 329.5,206.5C 326.268,206.772 324.268,208.438 323.5,211.5C 323.923,212.63 325.257,212.797 327.5,212C 329.468,210.456 331.635,209.289 334,208.5C 333.923,209.738 334.089,210.738 334.5,211.5C 335.919,210.995 336.585,209.995 336.5,208.5C 337.906,208.027 338.573,207.027 338.5,205.5C 340.39,205.703 341.89,205.037 343,203.5C 344.011,204.337 345.178,204.67 346.5,204.5C 347.5,205.167 348.5,205.833 349.5,206.5C 349.833,207.5 350.5,208.167 351.5,208.5C 351.5,209.167 351.5,209.833 351.5,210.5C 350.317,209.496 348.984,208.662 347.5,208C 342.711,207.155 341.377,208.989 343.5,213.5C 342.402,214.397 342.402,215.23 343.5,216C 342.833,216.167 342.167,216.333 341.5,216.5C 340.812,214.877 339.145,213.543 336.5,212.5C 336.168,213.789 335.834,215.455 335.5,217.5C 334.167,217.5 332.833,217.5 331.5,217.5C 329.194,217.007 326.861,216.674 324.5,216.5C 324.167,216.5 323.833,216.5 323.5,216.5C 318.665,214.607 313.665,214.274 308.5,215.5C 307.221,214.285 306.221,214.618 305.5,216.5C 304.833,216.5 304.167,216.5 303.5,216.5C 302.312,215.316 301.145,215.316 300,216.5C 299.773,213.064 298.273,212.064 295.5,213.5C 294.937,210.705 293.604,208.372 291.5,206.5C 291.833,205.833 292.167,205.167 292.5,204.5C 294.63,206.127 296.63,207.96 298.5,210C 299.167,210.667 299.833,210.667 300.5,210C 297.713,205.381 294.38,201.215 290.5,197.5C 293.056,198.543 295.223,200.21 297,202.5C 297.5,202 298,201.5 298.5,201C 295.85,197.793 296.016,197.293 299,199.5C 299.991,198.061 301.324,197.061 303,196.5C 304.377,200.279 306.877,202.946 310.5,204.5 Z"/></g>
<g><path style="opacity:1" fill="#c7cbd2" d="M 329.5,206.5 C 329.938,206.435 330.272,206.601 330.5,207C 327.733,208.037 325.399,209.537 323.5,211.5C 324.268,208.438 326.268,206.772 329.5,206.5 Z"/></g>
<g><path style="opacity:1" fill="#96b5cc" d="M 338.5,205.5 C 338.573,207.027 337.906,208.027 336.5,208.5C 336.427,206.973 337.094,205.973 338.5,205.5 Z"/></g>
<g><path style="opacity:1" fill="#b5c4cd" d="M 310.5,204.5 C 312.027,204.427 313.027,205.094 313.5,206.5C 313.167,206.5 312.833,206.5 312.5,206.5C 311.5,206.167 310.833,205.5 310.5,204.5 Z"/></g>
<g><path style="opacity:1" fill="#373a37" d="M 351.5,208.5 C 356.887,211.554 360.887,215.887 363.5,221.5C 363.5,223.833 363.5,226.167 363.5,228.5C 362.728,232.598 360.728,235.931 357.5,238.5C 357.527,236.801 358.194,235.467 359.5,234.5C 364.369,225.449 362.369,218.449 353.5,213.5C 353.5,213.167 353.5,212.833 353.5,212.5C 352.833,211.833 352.167,211.167 351.5,210.5C 351.5,209.833 351.5,209.167 351.5,208.5 Z"/></g>
<g><path style="opacity:1" fill="#ededef" d="M 242.5,213.5 C 242.068,214.71 241.401,215.71 240.5,216.5C 240.285,214.821 240.952,213.821 242.5,213.5 Z"/></g>
<g><path style="opacity:1" fill="#d4d5ce" d="M 247.5,214.5 C 246.833,215.167 246.167,215.833 245.5,216.5C 245.082,215.778 244.416,215.278 243.5,215C 244.818,213.37 246.151,213.203 247.5,214.5 Z"/></g>
<g><path style="opacity:1" fill="#dfdcc8" d="M 257.5,217.5 C 254.545,216.841 251.545,216.508 248.5,216.5C 248.5,215.5 248.5,214.5 248.5,213.5C 250.854,213.838 253.187,214.338 255.5,215C 256.756,215.417 257.423,216.25 257.5,217.5 Z"/></g>
<g><path style="opacity:1" fill="#53493f" d="M 288.5,220.5 C 286.163,222.396 283.496,223.73 280.5,224.5C 281.412,223.262 281.579,221.928 281,220.5C 279.303,218.301 277.803,215.968 276.5,213.5C 276.833,212.5 277.5,211.833 278.5,211.5C 281.939,213.104 284.606,215.604 286.5,219C 285.159,220.295 283.826,220.795 282.5,220.5C 284.46,221.519 286.46,221.519 288.5,220.5 Z"/></g>
<g><path style="opacity:1" fill="#fefffe" d="M 176.5,217.5 C 177.833,218.167 177.833,218.167 176.5,217.5 Z"/></g>
<g><path style="opacity:1" fill="#f3d9a4" d="M 192.5,226.5 C 190.816,224.709 188.816,223.209 186.5,222C 188.301,221.683 188.634,221.016 187.5,220C 188.449,219.383 189.282,219.549 190,220.5C 192.599,218.121 195.433,216.121 198.5,214.5C 199.884,213.199 201.384,213.199 203,214.5C 203.837,218.295 203.504,221.961 202,225.5C 199.508,228.191 197.675,227.691 196.5,224C 195.833,223.333 195.167,223.333 194.5,224C 196.77,226.061 197.27,228.227 196,230.5C 194.595,229.269 193.429,227.936 192.5,226.5 Z"/></g>
<g><path style="opacity:1" fill="#271d0e" d="M 293.5,216.5 C 292.415,218.587 290.749,219.92 288.5,220.5C 289.585,218.413 291.251,217.08 293.5,216.5 Z"/></g>
<g><path style="opacity:1" fill="#e1dcd3" d="M 206.5,216.5 C 206.802,219.059 206.468,221.393 205.5,223.5C 205.708,221.08 205.374,218.747 204.5,216.5C 204.97,215.537 205.637,215.537 206.5,216.5 Z"/></g>
<g><path style="opacity:1" fill="#e1dedc" d="M 258.5,220.5 C 257.375,219.652 257.375,218.652 258.5,217.5C 259.899,217.555 259.899,218.555 258.5,220.5 Z"/></g>
<g><path style="opacity:1" fill="#eadabf" d="M 212.5,215.5 C 213.651,220.936 213.151,226.269 211,231.5C 210.667,227.5 210.333,223.5 210,219.5C 209.594,224.55 208.094,229.217 205.5,233.5C 204.957,233.44 204.624,233.107 204.5,232.5C 207.159,227.231 207.826,221.898 206.5,216.5C 207.988,214.155 209.988,213.821 212.5,215.5 Z"/></g>
<g><path style="opacity:1" fill="#f1d9aa" d="M 212.5,215.5 C 215.976,214.357 219.642,214.19 223.5,215C 233.331,216.229 241.498,220.062 248,226.5C 250.699,231.256 253.866,235.589 257.5,239.5C 260.316,242.393 260.982,245.727 259.5,249.5C 258.817,249.137 258.15,248.804 257.5,248.5C 250.534,244.366 244.701,239.033 240,232.5C 239.667,229.167 239.333,225.833 239,222.5C 238.529,224.246 237.862,225.913 237,227.5C 236.64,225.392 235.973,223.392 235,221.5C 234.703,224.914 234.036,228.247 233,231.5C 231.941,228.382 230.608,225.382 229,222.5C 228.947,225.202 229.447,227.869 230.5,230.5C 229.844,232.453 229.511,234.453 229.5,236.5C 228.178,236.67 227.011,236.337 226,235.5C 225.529,233.754 224.862,232.087 224,230.5C 222.778,234.89 220.445,235.556 217,232.5C 216.319,227.108 215.319,221.775 214,216.5C 213.617,215.944 213.117,215.611 212.5,215.5 Z"/></g>
<g><path style="opacity:1" fill="#e5e0d2" d="M 246.5,219.5 C 253.334,221.496 257.501,225.83 259,232.5C 256.643,228.46 253.476,225.627 249.5,224C 252.98,226.297 254.98,229.464 255.5,233.5C 251.773,228.265 247.44,223.432 242.5,219C 243.819,218.805 245.153,218.972 246.5,219.5 Z"/></g>
<g><path style="opacity:1" fill="#efdcb7" d="M 198.5,214.5 C 195.433,216.121 192.599,218.121 190,220.5C 189.282,219.549 188.449,219.383 187.5,220C 188.634,221.016 188.301,221.683 186.5,222C 188.816,223.209 190.816,224.709 192.5,226.5C 192.906,228.109 192.906,229.443 192.5,230.5C 190.501,228.507 189.001,226.173 188,223.5C 187.776,226.11 188.276,228.61 189.5,231C 185.82,232.027 182.653,231.194 180,228.5C 179.333,229.167 179.333,229.833 180,230.5C 181.353,231.685 182.52,233.019 183.5,234.5C 183,234.833 182.5,235.167 182,235.5C 180.2,234.68 178.366,234.014 176.5,233.5C 176.586,232.504 176.252,231.671 175.5,231C 179.032,224.97 183.699,220.136 189.5,216.5C 190.922,217.777 191.922,217.443 192.5,215.5C 194.5,215.167 196.5,214.833 198.5,214.5 Z"/></g>
<g><path style="opacity:1" fill="#ebddc0" d="M 295.5,219.5 C 299.846,219.854 301.513,222.187 300.5,226.5C 299.71,227.609 299.21,228.942 299,230.5C 298.667,228.167 298.333,225.833 298,223.5C 296.768,228.721 296.101,234.054 296,239.5C 295.283,238.956 294.783,238.289 294.5,237.5C 293.011,235.195 291.511,232.862 290,230.5C 289.667,230.833 289.333,231.167 289,231.5C 286.603,229.218 283.769,227.884 280.5,227.5C 280.5,226.5 280.5,225.5 280.5,224.5C 283.496,223.73 286.163,222.396 288.5,220.5C 290.749,219.92 292.415,218.587 293.5,216.5C 296.619,214.273 297.286,215.273 295.5,219.5 Z"/></g>
<g><path style="opacity:1" fill="#272010" d="M 295.5,219.5 C 296.317,221.308 295.65,222.808 293.5,224C 291.598,225.301 289.598,225.968 287.5,226C 290.331,223.999 292.997,221.833 295.5,219.5 Z"/></g>
<g><path style="opacity:1" fill="#fefffe" d="M 171.5,224.5 C 172.833,225.167 172.833,225.167 171.5,224.5 Z"/></g>
<g><path style="opacity:1" fill="#a6ab9a" d="M 270.5,231.5 C 268.975,232.389 267.975,231.722 267.5,229.5C 265.856,227.519 264.19,225.519 262.5,223.5C 262.667,223.167 262.833,222.833 263,222.5C 264.779,225.276 265.779,224.943 266,221.5C 268.303,222.744 268.803,224.411 267.5,226.5C 268.696,228.145 269.696,229.811 270.5,231.5 Z"/></g>
<g><path style="opacity:1" fill="#42361a" d="M 280.5,224.5 C 280.5,225.5 280.5,226.5 280.5,227.5C 278.015,226.26 278.015,225.26 280.5,224.5 Z"/></g>
<g><path style="opacity:1" fill="#ebdcc0" d="M 353.5,213.5 C 362.369,218.449 364.369,225.449 359.5,234.5C 359.176,232.036 359.009,229.369 359,226.5C 357.68,224.183 356.014,222.183 354,220.5C 350.503,220.131 347.003,220.631 343.5,222C 341.07,224.305 340.07,227.138 340.5,230.5C 339.833,230.833 339.167,231.167 338.5,231.5C 338.665,228.15 338.498,224.817 338,221.5C 336.978,223.702 336.478,226.035 336.5,228.5C 336.938,231.527 337.105,234.527 337,237.5C 334.504,234.686 333.17,231.353 333,227.5C 332.808,229.577 332.308,231.577 331.5,233.5C 329.58,220.759 334.913,216.093 347.5,219.5C 347.833,219.333 348.167,219.167 348.5,219C 346.745,218.28 345.911,217.113 346,215.5C 348.301,214.133 350.801,213.466 353.5,213.5 Z"/></g>
<g><path style="opacity:1" fill="#e7e5e6" d="M 363.5,221.5 C 364.289,221.783 364.956,222.283 365.5,223C 364.891,224.948 364.224,226.782 363.5,228.5C 363.5,226.167 363.5,223.833 363.5,221.5 Z"/></g>
<g><path style="opacity:1" fill="#080d15" d="M 359.5,234.5 C 358.194,235.467 357.527,236.801 357.5,238.5C 356.694,239.728 355.694,240.728 354.5,241.5C 352.95,242.441 351.284,243.107 349.5,243.5C 348.821,241.186 347.488,240.853 345.5,242.5C 344.5,242.167 343.833,241.5 343.5,240.5C 343.653,236.495 345.153,233.162 348,230.5C 348.045,227.666 348.879,225.166 350.5,223C 348.833,222.333 347.167,222.333 345.5,223C 343.998,225.574 342.998,228.407 342.5,231.5C 341.056,232.981 340.389,232.648 340.5,230.5C 340.07,227.138 341.07,224.305 343.5,222C 347.003,220.631 350.503,220.131 354,220.5C 356.014,222.183 357.68,224.183 359,226.5C 359.009,229.369 359.176,232.036 359.5,234.5 Z"/></g>
<g><path style="opacity:1" fill="#ebe0cb" d="M 260.5,225.5 C 263.115,226.45 265.115,228.117 266.5,230.5C 267.299,233.43 267.632,236.43 267.5,239.5C 264.287,235.766 261.62,231.599 259.5,227C 259.57,226.235 259.903,225.735 260.5,225.5 Z"/></g>
<g><path style="opacity:1" fill="#b1b9bd" d="M 203.5,228.5 C 203.5,230.5 202.5,231.5 200.5,231.5C 201.167,230.167 202.167,229.167 203.5,228.5 Z"/></g>
<g><path style="opacity:1" fill="#fefffe" d="M 364.5,231.5 C 365.833,232.167 365.833,232.167 364.5,231.5 Z"/></g>
<g><path style="opacity:1" fill="#677d7c" d="M 200.5,231.5 C 201.791,233.59 201.124,234.924 198.5,235.5C 197.571,233.678 198.238,232.345 200.5,231.5 Z"/></g>
<g><path style="opacity:1" fill="#7c95ca" d="M 191.5,234.5 C 192.738,234.81 192.738,235.31 191.5,236C 190.552,236.483 189.552,236.649 188.5,236.5C 189.29,235.599 190.29,234.932 191.5,234.5 Z"/></g>
<g><path style="opacity:1" fill="#19191b" d="M 280.5,227.5 C 283.769,227.884 286.603,229.218 289,231.5C 289.333,231.167 289.667,230.833 290,230.5C 291.511,232.862 293.011,235.195 294.5,237.5C 293.298,238.405 291.964,238.405 290.5,237.5C 290.295,235.215 289.629,233.882 288.5,233.5C 287.533,232.194 286.199,231.527 284.5,231.5C 284.517,233.565 284.85,235.565 285.5,237.5C 283.958,238.163 282.291,238.83 280.5,239.5C 281.689,240.429 283.022,240.762 284.5,240.5C 285.167,240.5 285.5,240.833 285.5,241.5C 284.167,242.167 283.167,243.167 282.5,244.5C 281.244,244.461 280.244,244.961 279.5,246C 280.133,249.76 281.133,253.427 282.5,257C 281.584,257.278 280.918,257.778 280.5,258.5C 279.167,258.833 277.833,259.167 276.5,259.5C 276.994,262.906 278.661,263.906 281.5,262.5C 283.626,262.15 285.959,262.15 288.5,262.5C 289.833,262.5 290.5,263.167 290.5,264.5C 288.958,265.301 287.292,265.634 285.5,265.5C 283.143,265.337 280.81,265.503 278.5,266C 277.944,266.383 277.611,266.883 277.5,267.5C 274.854,269.78 271.854,270.113 268.5,268.5C 268.167,268.5 267.833,268.5 267.5,268.5C 268.833,267.167 270.167,265.833 271.5,264.5C 272.807,265.153 274.14,265.82 275.5,266.5C 275.833,265.833 276.167,265.167 276.5,264.5C 274.225,257.368 272.892,250.035 272.5,242.5C 269.867,243.782 269.867,245.116 272.5,246.5C 272.154,247.696 271.654,247.696 271,246.5C 270.502,249.482 270.335,252.482 270.5,255.5C 268.991,256.859 268.324,256.359 268.5,254C 269.332,251.522 269.499,249.022 269,246.5C 267.992,246.018 266.825,245.852 265.5,246C 266.397,243.913 267.064,241.746 267.5,239.5C 267.632,236.43 267.299,233.43 266.5,230.5C 266.5,229.833 266.833,229.5 267.5,229.5C 267.975,231.722 268.975,232.389 270.5,231.5C 270.369,230.761 270.536,230.094 271,229.5C 272.192,231.65 273.692,232.317 275.5,231.5C 275.56,232.043 275.893,232.376 276.5,232.5C 277.857,230.814 279.19,229.148 280.5,227.5 Z"/></g>
<g><path style="opacity:1" fill="#d0d9cf" d="M 280.5,232.5 C 281.5,232.5 282.5,232.5 283.5,232.5C 282.754,236.31 281.754,236.31 280.5,232.5 Z"/></g>
<g><path style="opacity:1" fill="#12171f" d="M 206.5,216.5 C 207.826,221.898 207.159,227.231 204.5,232.5C 204.624,233.107 204.957,233.44 205.5,233.5C 206.462,235.986 207.295,235.986 208,233.5C 208.402,234.872 208.902,236.205 209.5,237.5C 208.369,238.604 207.535,238.271 207,236.5C 206.5,237 206,237.5 205.5,238C 208.554,240.194 211.888,241.861 215.5,243C 214.402,243.77 214.402,244.603 215.5,245.5C 212.574,244.302 209.574,243.302 206.5,242.5C 205.5,242.5 204.5,242.5 203.5,242.5C 201.03,242.654 199.03,243.654 197.5,245.5C 195.833,246.5 194.5,247.833 193.5,249.5C 193.167,250.167 192.833,250.833 192.5,251.5C 191.5,251.833 190.833,252.5 190.5,253.5C 186.796,258.86 183.13,264.193 179.5,269.5C 179.135,266.254 180.135,263.588 182.5,261.5C 182.291,260.914 181.957,260.414 181.5,260C 184.346,259.121 185.013,257.454 183.5,255C 184.536,253.383 185.703,253.216 187,254.5C 189.157,250.224 190.157,245.891 190,241.5C 190.75,240.874 191.584,240.374 192.5,240C 190.323,238.798 187.989,238.298 185.5,238.5C 185.821,236.952 186.821,236.285 188.5,236.5C 189.552,236.649 190.552,236.483 191.5,236C 192.738,235.31 192.738,234.81 191.5,234.5C 192.251,233.427 193.251,233.26 194.5,234C 194.167,234.333 193.833,234.667 193.5,235C 195.139,236.519 196.806,236.686 198.5,235.5C 201.124,234.924 201.791,233.59 200.5,231.5C 202.5,231.5 203.5,230.5 203.5,228.5C 204.931,227.22 205.598,225.553 205.5,223.5C 206.468,221.393 206.802,219.059 206.5,216.5 Z"/></g>
<g><path style="opacity:1" fill="#e6dde1" d="M 285.5,237.5 C 286.043,237.56 286.376,237.893 286.5,238.5C 285.757,239.182 285.091,239.849 284.5,240.5C 283.022,240.762 281.689,240.429 280.5,239.5C 282.291,238.83 283.958,238.163 285.5,237.5 Z"/></g>
<g><path style="opacity:1" fill="#050a12" d="M 300.5,226.5 C 300.275,228.716 301.108,230.383 303,231.5C 303.957,229.291 305.124,229.457 306.5,232C 310.558,232.767 314.558,232.6 318.5,231.5C 319.981,233.149 321.648,234.482 323.5,235.5C 320.257,238.388 317.59,237.888 315.5,234C 312.854,233.503 310.187,233.336 307.5,233.5C 307.5,234.5 307.5,235.5 307.5,236.5C 305.799,236.966 304.299,236.966 303,236.5C 302.667,237.167 302.333,237.833 302,238.5C 301.64,236.579 300.806,234.912 299.5,233.5C 299.189,238.215 300.856,242.215 304.5,245.5C 301.22,248.043 298.387,251.043 296,254.5C 295.51,255.793 295.343,257.127 295.5,258.5C 295.5,258.833 295.5,259.167 295.5,259.5C 291.866,257.484 289.533,258.484 288.5,262.5C 285.959,262.15 283.626,262.15 281.5,262.5C 281.167,261.167 280.833,259.833 280.5,258.5C 280.918,257.778 281.584,257.278 282.5,257C 281.133,253.427 280.133,249.76 279.5,246C 280.244,244.961 281.244,244.461 282.5,244.5C 282.821,246.048 283.821,246.715 285.5,246.5C 285.5,244.833 285.5,243.167 285.5,241.5C 285.5,240.833 285.167,240.5 284.5,240.5C 285.091,239.849 285.757,239.182 286.5,238.5C 286.376,237.893 286.043,237.56 285.5,237.5C 284.85,235.565 284.517,233.565 284.5,231.5C 286.199,231.527 287.533,232.194 288.5,233.5C 288.229,235.38 288.896,236.713 290.5,237.5C 291.964,238.405 293.298,238.405 294.5,237.5C 294.783,238.289 295.283,238.956 296,239.5C 296.101,234.054 296.768,228.721 298,223.5C 298.333,225.833 298.667,228.167 299,230.5C 299.21,228.942 299.71,227.609 300.5,226.5 Z"/></g>
<g><path style="opacity:1" fill="#a6bbcb" d="M 290.5,237.5 C 288.896,236.713 288.229,235.38 288.5,233.5C 289.629,233.882 290.295,235.215 290.5,237.5 Z"/></g>
<g><path style="opacity:1" fill="#0b111a" d="M 349.5,243.5 C 341.035,246.509 332.369,247.176 323.5,245.5C 322.652,244.375 321.652,244.375 320.5,245.5C 320.167,245.5 319.833,245.5 319.5,245.5C 315.434,245.693 311.434,245.36 307.5,244.5C 306.391,244.557 305.391,244.89 304.5,245.5C 300.856,242.215 299.189,238.215 299.5,233.5C 300.806,234.912 301.64,236.579 302,238.5C 302.333,237.833 302.667,237.167 303,236.5C 304.299,236.966 305.799,236.966 307.5,236.5C 307.5,235.5 307.5,234.5 307.5,233.5C 310.187,233.336 312.854,233.503 315.5,234C 317.59,237.888 320.257,238.388 323.5,235.5C 323.312,237.103 323.812,238.437 325,239.5C 326.486,233.745 328.319,233.411 330.5,238.5C 332.865,234.245 333.865,234.579 333.5,239.5C 335.989,239.702 338.323,239.202 340.5,238C 340.238,236.022 339.572,233.856 338.5,231.5C 339.167,231.167 339.833,230.833 340.5,230.5C 340.389,232.648 341.056,232.981 342.5,231.5C 342.998,228.407 343.998,225.574 345.5,223C 347.167,222.333 348.833,222.333 350.5,223C 348.879,225.166 348.045,227.666 348,230.5C 345.153,233.162 343.653,236.495 343.5,240.5C 343.833,241.5 344.5,242.167 345.5,242.5C 347.488,240.853 348.821,241.186 349.5,243.5 Z"/></g>
<g><path style="opacity:1" fill="#0f1011" d="M 303.5,216.5 C 302.072,219.012 301.572,221.678 302,224.5C 302.921,221.664 304.088,218.998 305.5,216.5C 306.221,214.618 307.221,214.285 308.5,215.5C 307.4,216.605 306.733,217.938 306.5,219.5C 306.833,219.5 307.167,219.5 307.5,219.5C 307.5,219.833 307.5,220.167 307.5,220.5C 306.793,223.786 306.46,227.119 306.5,230.5C 307.5,230.5 308.5,230.5 309.5,230.5C 311.357,231.754 313.357,231.754 315.5,230.5C 317.283,227.327 318.783,223.994 320,220.5C 320.949,218.907 322.115,217.574 323.5,216.5C 323.833,216.5 324.167,216.5 324.5,216.5C 324.167,217.167 323.833,217.833 323.5,218.5C 321.26,222.477 320.427,226.811 321,231.5C 323.333,232.167 325.667,232.833 328,233.5C 328.49,232.207 328.657,230.873 328.5,229.5C 328.833,228.833 329.167,228.167 329.5,227.5C 329.884,224.231 331.218,221.397 333.5,219C 332.584,218.722 331.918,218.222 331.5,217.5C 332.833,217.5 334.167,217.5 335.5,217.5C 335.834,215.455 336.168,213.789 336.5,212.5C 339.145,213.543 340.812,214.877 341.5,216.5C 342.167,216.333 342.833,216.167 343.5,216C 342.402,215.23 342.402,214.397 343.5,213.5C 346.728,212.586 350.061,212.253 353.5,212.5C 353.5,212.833 353.5,213.167 353.5,213.5C 350.801,213.466 348.301,214.133 346,215.5C 345.911,217.113 346.745,218.28 348.5,219C 348.167,219.167 347.833,219.333 347.5,219.5C 334.913,216.093 329.58,220.759 331.5,233.5C 332.308,231.577 332.808,229.577 333,227.5C 333.17,231.353 334.504,234.686 337,237.5C 337.105,234.527 336.938,231.527 336.5,228.5C 336.478,226.035 336.978,223.702 338,221.5C 338.498,224.817 338.665,228.15 338.5,231.5C 339.572,233.856 340.238,236.022 340.5,238C 338.323,239.202 335.989,239.702 333.5,239.5C 333.865,234.579 332.865,234.245 330.5,238.5C 328.319,233.411 326.486,233.745 325,239.5C 323.812,238.437 323.312,237.103 323.5,235.5C 321.648,234.482 319.981,233.149 318.5,231.5C 314.558,232.6 310.558,232.767 306.5,232C 305.124,229.457 303.957,229.291 303,231.5C 301.108,230.383 300.275,228.716 300.5,226.5C 301.513,222.187 299.846,219.854 295.5,219.5C 297.286,215.273 296.619,214.273 293.5,216.5C 293.427,214.973 294.094,213.973 295.5,213.5C 298.273,212.064 299.773,213.064 300,216.5C 301.145,215.316 302.312,215.316 303.5,216.5 Z"/></g>
<g><path style="opacity:1" fill="#e6e2d4" d="M 323.5,218.5 C 324.677,220.103 324.511,221.436 323,222.5C 322.502,225.482 322.335,228.482 322.5,231.5C 324.858,231.747 326.858,231.081 328.5,229.5C 328.657,230.873 328.49,232.207 328,233.5C 325.667,232.833 323.333,232.167 321,231.5C 320.427,226.811 321.26,222.477 323.5,218.5 Z"/></g>
<g><path style="opacity:1" fill="#fbda9e" d="M 323.5,218.5 C 325.527,218.338 327.527,218.505 329.5,219C 328.671,221.737 328.671,224.571 329.5,227.5C 329.167,228.167 328.833,228.833 328.5,229.5C 326.858,231.081 324.858,231.747 322.5,231.5C 322.335,228.482 322.502,225.482 323,222.5C 324.511,221.436 324.677,220.103 323.5,218.5 Z"/></g>
<g><path style="opacity:1" fill="#f3eede" d="M 307.5,220.5 C 308.807,222.223 308.807,224.057 307.5,226C 308.582,227.33 309.249,228.83 309.5,230.5C 308.5,230.5 307.5,230.5 306.5,230.5C 306.46,227.119 306.793,223.786 307.5,220.5 Z"/></g>
<g><path style="opacity:1" fill="#d4d4c7" d="M 306.5,219.5 C 305.955,221.593 305.122,223.593 304,225.5C 303.458,222.918 304.292,220.918 306.5,219.5 Z"/></g>
<g><path style="opacity:1" fill="#ebe2cb" d="M 324.5,216.5 C 326.861,216.674 329.194,217.007 331.5,217.5C 331.918,218.222 332.584,218.722 333.5,219C 331.218,221.397 329.884,224.231 329.5,227.5C 328.671,224.571 328.671,221.737 329.5,219C 327.527,218.505 325.527,218.338 323.5,218.5C 323.833,217.833 324.167,217.167 324.5,216.5 Z"/></g>
<g><path style="opacity:1" fill="#f8da9d" d="M 309.5,230.5 C 309.249,228.83 308.582,227.33 307.5,226C 308.807,224.057 308.807,222.223 307.5,220.5C 307.5,220.167 307.5,219.833 307.5,219.5C 308.688,218.636 309.855,217.636 311,216.5C 313.768,217.836 316.268,218.836 318.5,219.5C 316.929,221.882 316.096,224.549 316,227.5C 314.266,229.451 312.099,230.451 309.5,230.5 Z"/></g>
<g><path style="opacity:1" fill="#e5dfd6" d="M 303.5,216.5 C 304.167,216.5 304.833,216.5 305.5,216.5C 304.088,218.998 302.921,221.664 302,224.5C 301.572,221.678 302.072,219.012 303.5,216.5 Z"/></g>
<g><path style="opacity:1" fill="#eedcb6" d="M 323.5,216.5 C 322.115,217.574 320.949,218.907 320,220.5C 318.783,223.994 317.283,227.327 315.5,230.5C 313.357,231.754 311.357,231.754 309.5,230.5C 312.099,230.451 314.266,229.451 316,227.5C 316.096,224.549 316.929,221.882 318.5,219.5C 316.268,218.836 313.768,217.836 311,216.5C 309.855,217.636 308.688,218.636 307.5,219.5C 307.167,219.5 306.833,219.5 306.5,219.5C 306.733,217.938 307.4,216.605 308.5,215.5C 313.665,214.274 318.665,214.607 323.5,216.5 Z"/></g>
<g><path style="opacity:1" fill="#c0c3d4" d="M 272.5,238.5 C 272.56,237.957 272.893,237.624 273.5,237.5C 274.583,238.365 274.749,239.365 274,240.5C 273.722,239.584 273.222,238.918 272.5,238.5 Z"/></g>
<g><path style="opacity:1" fill="#fefffe" d="M 354.5,241.5 C 355.833,242.167 355.833,242.167 354.5,241.5 Z"/></g>
<g><path style="opacity:1" fill="#fefffe" d="M 166.5,243.5 C 165.833,242.167 165.833,242.167 166.5,243.5 Z"/></g>
<g><path style="opacity:1" fill="#d5d8e5" d="M 203.5,242.5 C 204.5,242.5 205.5,242.5 206.5,242.5C 206.043,244.557 205.043,244.557 203.5,242.5 Z"/></g>
<g><path style="opacity:1" fill="#080c11" d="M 212.5,215.5 C 213.117,215.611 213.617,215.944 214,216.5C 215.319,221.775 216.319,227.108 217,232.5C 220.445,235.556 222.778,234.89 224,230.5C 224.862,232.087 225.529,233.754 226,235.5C 227.011,236.337 228.178,236.67 229.5,236.5C 229.511,234.453 229.844,232.453 230.5,230.5C 229.447,227.869 228.947,225.202 229,222.5C 230.608,225.382 231.941,228.382 233,231.5C 234.036,228.247 234.703,224.914 235,221.5C 235.973,223.392 236.64,225.392 237,227.5C 237.862,225.913 238.529,224.246 239,222.5C 239.333,225.833 239.667,229.167 240,232.5C 244.701,239.033 250.534,244.366 257.5,248.5C 256.082,251.061 255.082,253.728 254.5,256.5C 255.172,253.058 254.172,250.391 251.5,248.5C 249.043,245.778 246.043,243.778 242.5,242.5C 240.974,242.994 239.641,243.661 238.5,244.5C 232.866,245.151 228.199,247.651 224.5,252C 226.81,252.497 229.143,252.663 231.5,252.5C 233.975,255.241 236.975,257.241 240.5,258.5C 243.336,262.365 247.003,263.365 251.5,261.5C 251.5,262.167 251.5,262.833 251.5,263.5C 249.034,264.634 246.367,264.801 243.5,264C 241.496,261.941 239.163,260.441 236.5,259.5C 233.144,254.041 228.811,252.708 223.5,255.5C 222.609,254.89 221.609,254.557 220.5,254.5C 220.5,253.833 220.5,253.167 220.5,252.5C 221.806,251.533 222.473,250.199 222.5,248.5C 221.71,247.599 220.71,246.932 219.5,246.5C 218.432,245.566 217.099,245.232 215.5,245.5C 214.402,244.603 214.402,243.77 215.5,243C 211.888,241.861 208.554,240.194 205.5,238C 206,237.5 206.5,237 207,236.5C 207.535,238.271 208.369,238.604 209.5,237.5C 208.902,236.205 208.402,234.872 208,233.5C 207.295,235.986 206.462,235.986 205.5,233.5C 208.094,229.217 209.594,224.55 210,219.5C 210.333,223.5 210.667,227.5 211,231.5C 213.151,226.269 213.651,220.936 212.5,215.5 Z"/></g>
<g><path style="opacity:1" fill="#efefec" d="M 285.5,241.5 C 285.5,243.167 285.5,244.833 285.5,246.5C 283.821,246.715 282.821,246.048 282.5,244.5C 283.167,243.167 284.167,242.167 285.5,241.5 Z"/></g>
<g><path style="opacity:0.575" fill="#fefefe" d="M 197.5,245.5 C 197.167,247.833 195.833,249.167 193.5,249.5C 194.5,247.833 195.833,246.5 197.5,245.5 Z"/></g>
<g><path style="opacity:1" fill="#e3e9ef" d="M 215.5,245.5 C 217.099,245.232 218.432,245.566 219.5,246.5C 217.625,248.078 216.292,247.745 215.5,245.5 Z"/></g>
<g><path style="opacity:1" fill="#cfdbea" d="M 323.5,245.5 C 322.348,246.625 321.348,246.625 320.5,245.5C 321.652,244.375 322.652,244.375 323.5,245.5 Z"/></g>
<g><path style="opacity:0.669" fill="#f4f5f6" d="M 219.5,246.5 C 220.71,246.932 221.71,247.599 222.5,248.5C 220.821,248.715 219.821,248.048 219.5,246.5 Z"/></g>
<g><path style="opacity:1" fill="#f8da9e" d="M 251.5,248.5 C 251.042,251.189 251.709,253.856 253.5,256.5C 252.352,258.149 251.019,259.649 249.5,261C 246.728,260.948 244.394,259.781 242.5,257.5C 241.817,257.863 241.15,258.196 240.5,258.5C 236.975,257.241 233.975,255.241 231.5,252.5C 230.942,251.21 229.942,250.377 228.5,250C 231.376,247.563 234.71,246.23 238.5,246C 239.738,245.31 239.738,244.81 238.5,244.5C 239.641,243.661 240.974,242.994 242.5,242.5C 246.043,243.778 249.043,245.778 251.5,248.5 Z"/></g>
<g><path style="opacity:1" fill="#4b5159" d="M 307.5,244.5 C 311.434,245.36 315.434,245.693 319.5,245.5C 316.023,246.323 312.356,246.823 308.5,247C 307.619,247.708 306.953,248.542 306.5,249.5C 303.867,251.132 301.533,253.132 299.5,255.5C 299.389,254.883 299.056,254.383 298.5,254C 301.743,250.928 304.743,247.761 307.5,244.5 Z"/></g>
<g><path style="opacity:1" fill="#eae4ca" d="M 238.5,244.5 C 239.738,244.81 239.738,245.31 238.5,246C 234.71,246.23 231.376,247.563 228.5,250C 229.942,250.377 230.942,251.21 231.5,252.5C 229.143,252.663 226.81,252.497 224.5,252C 228.199,247.651 232.866,245.151 238.5,244.5 Z"/></g>
<g><path style="opacity:1" fill="#f1ddb2" d="M 176.5,236.5 C 177.605,237.6 178.938,238.267 180.5,238.5C 182.564,239.868 184.898,240.868 187.5,241.5C 186.788,243.046 185.622,244.046 184,244.5C 180.941,243.808 178.608,242.141 177,239.5C 177.667,243.5 178.333,247.5 179,251.5C 175.621,257.702 170.788,259.202 164.5,256C 167.274,258.064 169.107,260.564 170,263.5C 168.887,262.695 167.721,262.028 166.5,261.5C 164.396,259.901 162.396,258.068 160.5,256C 166.892,250.189 171.059,243.022 173,234.5C 173.333,234.167 173.667,233.833 174,233.5C 174.377,234.942 175.21,235.942 176.5,236.5 Z"/></g>
<g><path style="opacity:0.992" fill="#fcfdfc" d="M 310.5,248.5 C 311.833,249.167 311.833,249.167 310.5,248.5 Z"/></g>
<g><path style="opacity:1" fill="#fefffe" d="M 306.5,249.5 C 307.833,250.167 307.833,250.167 306.5,249.5 Z"/></g>
<g><path style="opacity:1" fill="#fefffe" d="M 310.5,249.5 C 309.833,250.167 309.833,250.167 310.5,249.5 Z"/></g>
<g><path style="opacity:1" fill="#3c3a38" d="M 191.5,213.5 C 189.969,214.925 190.302,215.591 192.5,215.5C 191.922,217.443 190.922,217.777 189.5,216.5C 183.699,220.136 179.032,224.97 175.5,231C 176.252,231.671 176.586,232.504 176.5,233.5C 176.5,234.5 176.5,235.5 176.5,236.5C 175.21,235.942 174.377,234.942 174,233.5C 173.667,233.833 173.333,234.167 173,234.5C 171.059,243.022 166.892,250.189 160.5,256C 162.396,258.068 164.396,259.901 166.5,261.5C 166.062,261.435 165.728,261.601 165.5,262C 166.381,262.708 167.047,263.542 167.5,264.5C 165.446,264.635 163.779,263.968 162.5,262.5C 161.229,260.891 160.229,259.058 159.5,257C 155.642,256.19 151.976,256.357 148.5,257.5C 148.167,257.5 147.833,257.5 147.5,257.5C 143.312,254.64 139.646,255.473 136.5,260C 137.252,260.671 137.586,261.504 137.5,262.5C 137.082,263.222 136.416,263.722 135.5,264C 136.252,264.671 136.586,265.504 136.5,266.5C 134.899,265.481 133.899,263.981 133.5,262C 136.838,254.162 142.505,251.496 150.5,254C 159.066,255.622 164.4,252.122 166.5,243.5C 170.246,233.525 175.913,224.692 183.5,217C 186.071,215.546 188.738,214.38 191.5,213.5 Z"/></g>
<g><path style="opacity:0.998" fill="#fefefe" d="M 192.5,251.5 C 193.5,253.833 192.833,254.5 190.5,253.5C 190.833,252.5 191.5,251.833 192.5,251.5 Z"/></g>
<g><path style="opacity:0.504" fill="#fdfdfd" d="M 218.5,254.5 C 218.5,255.167 218.167,255.5 217.5,255.5C 216.258,253.654 216.591,253.321 218.5,254.5 Z"/></g>
<g><path style="opacity:1" fill="#e6e7e7" d="M 285.5,247.5 C 286.954,250.649 287.787,253.983 288,257.5C 285.592,254.414 284.759,251.081 285.5,247.5 Z"/></g>
<g><path style="opacity:1" fill="#6a727f" d="M 307.5,244.5 C 304.743,247.761 301.743,250.928 298.5,254C 299.056,254.383 299.389,254.883 299.5,255.5C 298.167,256.5 296.833,257.5 295.5,258.5C 295.343,257.127 295.51,255.793 296,254.5C 298.387,251.043 301.22,248.043 304.5,245.5C 305.391,244.89 306.391,244.557 307.5,244.5 Z"/></g>
<g><path style="opacity:1" fill="#e0d8c9" d="M 236.5,259.5 C 235.391,259.443 234.391,259.11 233.5,258.5C 230.45,256.899 227.116,255.899 223.5,255.5C 228.811,252.708 233.144,254.041 236.5,259.5 Z"/></g>
<g><path style="opacity:1" fill="#ebe4d3" d="M 271.5,264.5 C 271.383,262.516 272.05,260.85 273.5,259.5C 272.965,257.739 271.965,256.406 270.5,255.5C 270.335,252.482 270.502,249.482 271,246.5C 271.654,247.696 272.154,247.696 272.5,246.5C 269.867,245.116 269.867,243.782 272.5,242.5C 272.892,250.035 274.225,257.368 276.5,264.5C 276.167,265.167 275.833,265.833 275.5,266.5C 274.14,265.82 272.807,265.153 271.5,264.5 Z"/></g>
<g><path style="opacity:1" fill="#050a10" d="M 247.5,214.5 C 247.328,215.492 247.662,216.158 248.5,216.5C 251.545,216.508 254.545,216.841 257.5,217.5C 257.833,217.5 258.167,217.5 258.5,217.5C 257.375,218.652 257.375,219.652 258.5,220.5C 259.309,222.028 259.976,223.694 260.5,225.5C 259.903,225.735 259.57,226.235 259.5,227C 261.62,231.599 264.287,235.766 267.5,239.5C 267.064,241.746 266.397,243.913 265.5,246C 266.825,245.852 267.992,246.018 269,246.5C 269.499,249.022 269.332,251.522 268.5,254C 268.324,256.359 268.991,256.859 270.5,255.5C 271.965,256.406 272.965,257.739 273.5,259.5C 272.05,260.85 271.383,262.516 271.5,264.5C 270.167,265.833 268.833,267.167 267.5,268.5C 264.833,268.5 262.167,268.5 259.5,268.5C 260.469,267.691 261.302,266.691 262,265.5C 262.423,266.956 263.256,267.456 264.5,267C 263.167,266.333 263.167,265.667 264.5,265C 263.007,263.632 261.507,263.465 260,264.5C 258.333,263.167 256.667,261.833 255,260.5C 253.961,261.71 252.794,262.71 251.5,263.5C 251.5,262.833 251.5,262.167 251.5,261.5C 252.89,260.101 253.89,258.434 254.5,256.5C 255.082,253.728 256.082,251.061 257.5,248.5C 258.15,248.804 258.817,249.137 259.5,249.5C 260.982,245.727 260.316,242.393 257.5,239.5C 257.296,237.315 256.63,235.315 255.5,233.5C 254.98,229.464 252.98,226.297 249.5,224C 253.476,225.627 256.643,228.46 259,232.5C 257.501,225.83 253.334,221.496 246.5,219.5C 245.89,218.609 245.557,217.609 245.5,216.5C 246.167,215.833 246.833,215.167 247.5,214.5 Z"/></g>
<g><path style="opacity:1" fill="#739fb6" d="M 260.5,234.5 C 262.099,235.799 262.599,237.465 262,239.5C 260.991,237.975 260.491,236.308 260.5,234.5 Z"/></g>
<g><path style="opacity:1" fill="#e6e2c8" d="M 276.5,259.5 C 275.853,258.726 275.52,257.726 275.5,256.5C 276.189,250.853 276.689,245.186 277,239.5C 277.59,245.221 278.423,250.888 279.5,256.5C 278.23,257.288 277.23,258.288 276.5,259.5 Z"/></g>
<g><path style="opacity:1" fill="#f1e3c7" d="M 162.5,262.5 C 162.833,265.5 161.5,266.833 158.5,266.5C 159.092,260.042 158.092,259.376 155.5,264.5C 153.958,265.747 152.458,265.747 151,264.5C 150.009,262.192 149.176,259.859 148.5,257.5C 151.976,256.357 155.642,256.19 159.5,257C 160.229,259.058 161.229,260.891 162.5,262.5 Z"/></g>
<g><path style="opacity:1" fill="#040913" d="M 180.5,238.5 C 182.167,238.5 183.833,238.5 185.5,238.5C 187.989,238.298 190.323,238.798 192.5,240C 191.584,240.374 190.75,240.874 190,241.5C 190.157,245.891 189.157,250.224 187,254.5C 185.703,253.216 184.536,253.383 183.5,255C 185.013,257.454 184.346,259.121 181.5,260C 181.957,260.414 182.291,260.914 182.5,261.5C 180.135,263.588 179.135,266.254 179.5,269.5C 179.5,270.167 179.167,270.5 178.5,270.5C 176.952,270.821 176.285,271.821 176.5,273.5C 174.626,272.37 172.626,271.37 170.5,270.5C 170.598,271.616 170.098,272.616 169,273.5C 167.144,274.736 165.311,274.736 163.5,273.5C 163.167,274.167 162.833,274.833 162.5,275.5C 160.833,274.167 159.167,274.167 157.5,275.5C 153.622,273.945 149.788,271.612 146,268.5C 145.333,266.833 145.333,265.167 146,263.5C 146.216,265.384 146.883,267.051 148,268.5C 148.388,267.572 149.055,266.905 150,266.5C 152.98,266.641 155.813,266.641 158.5,266.5C 161.5,266.833 162.833,265.5 162.5,262.5C 163.779,263.968 165.446,264.635 167.5,264.5C 167.047,263.542 166.381,262.708 165.5,262C 165.728,261.601 166.062,261.435 166.5,261.5C 167.721,262.028 168.887,262.695 170,263.5C 169.107,260.564 167.274,258.064 164.5,256C 170.788,259.202 175.621,257.702 179,251.5C 178.333,247.5 177.667,243.5 177,239.5C 178.608,242.141 180.941,243.808 184,244.5C 185.622,244.046 186.788,243.046 187.5,241.5C 184.898,240.868 182.564,239.868 180.5,238.5 Z"/></g>
<g><path style="opacity:1" fill="#dddbcb" d="M 147.5,257.5 C 144.692,258.114 142.025,259.281 139.5,261C 140.549,261.492 141.549,261.326 142.5,260.5C 143.696,260.846 143.696,261.346 142.5,262C 140.866,262.494 139.199,262.66 137.5,262.5C 137.586,261.504 137.252,260.671 136.5,260C 139.646,255.473 143.312,254.64 147.5,257.5 Z"/></g>
<g><path style="opacity:1" fill="#efe6da" d="M 280.5,258.5 C 280.833,259.833 281.167,261.167 281.5,262.5C 278.661,263.906 276.994,262.906 276.5,259.5C 277.833,259.167 279.167,258.833 280.5,258.5 Z"/></g>
<g><path style="opacity:1" fill="#7b8187" d="M 295.5,259.5 C 293.445,260.559 292.111,262.225 291.5,264.5C 291.167,264.5 290.833,264.5 290.5,264.5C 290.5,263.167 289.833,262.5 288.5,262.5C 289.533,258.484 291.866,257.484 295.5,259.5 Z"/></g>
<g><path style="opacity:1" fill="#ede4c8" d="M 251.5,248.5 C 254.172,250.391 255.172,253.058 254.5,256.5C 253.89,258.434 252.89,260.101 251.5,261.5C 247.003,263.365 243.336,262.365 240.5,258.5C 241.15,258.196 241.817,257.863 242.5,257.5C 244.394,259.781 246.728,260.948 249.5,261C 251.019,259.649 252.352,258.149 253.5,256.5C 251.709,253.856 251.042,251.189 251.5,248.5 Z"/></g>
<g><path style="opacity:1" fill="#0c1119" d="M 233.5,258.5 C 234.391,259.11 235.391,259.443 236.5,259.5C 239.163,260.441 241.496,261.941 243.5,264C 246.367,264.801 249.034,264.634 251.5,263.5C 252.794,262.71 253.961,261.71 255,260.5C 256.667,261.833 258.333,263.167 260,264.5C 261.507,263.465 263.007,263.632 264.5,265C 263.167,265.667 263.167,266.333 264.5,267C 263.256,267.456 262.423,266.956 262,265.5C 261.302,266.691 260.469,267.691 259.5,268.5C 258.508,268.328 257.842,268.662 257.5,269.5C 256.28,272.719 253.947,274.385 250.5,274.5C 248.833,274.5 247.167,274.5 245.5,274.5C 245.5,275.5 245.5,276.5 245.5,277.5C 243.801,277.34 242.134,277.506 240.5,278C 241.252,278.671 241.586,279.504 241.5,280.5C 240.921,283.331 239.588,285.664 237.5,287.5C 235.774,284.992 234.108,282.492 232.5,280C 233.299,277.851 234.133,275.684 235,273.5C 235.333,273.833 235.667,274.167 236,274.5C 237.472,268.924 236.305,264.091 232.5,260C 233.056,259.617 233.389,259.117 233.5,258.5 Z"/></g>
<g><path style="opacity:1" fill="#fada9b" d="M 223.5,258.5 C 228.175,258.843 231.509,261.177 233.5,265.5C 231.992,267.171 231.659,269.004 232.5,271C 231.181,273.285 229.681,275.452 228,277.5C 227,277.167 226,276.833 225,276.5C 224,277.833 223,279.167 222,280.5C 220.992,280.018 219.825,279.852 218.5,280C 214.725,276.22 214.058,272.053 216.5,267.5C 218.896,264.451 221.229,261.451 223.5,258.5 Z"/></g>
<g><path style="opacity:0.504" fill="#fefffe" d="M 291.5,264.5 C 292.239,264.369 292.906,264.536 293.5,265C 292.563,265.692 291.897,265.525 291.5,264.5 Z"/></g>
<g><path style="opacity:1" fill="#cad9d4" d="M 167.5,264.5 C 168.756,264.461 169.756,264.961 170.5,266C 169.002,266.585 168.002,266.085 167.5,264.5 Z"/></g>
<g><path style="opacity:1" fill="#f3f4f6" d="M 285.5,265.5 C 282.997,266.371 280.33,267.037 277.5,267.5C 277.611,266.883 277.944,266.383 278.5,266C 280.81,265.503 283.143,265.337 285.5,265.5 Z"/></g>
<g><path style="opacity:1" fill="#a2b4c3" d="M 257.5,269.5 C 257.842,268.662 258.508,268.328 259.5,268.5C 262.167,268.5 264.833,268.5 267.5,268.5C 267.833,268.5 268.167,268.5 268.5,268.5C 264.918,270.043 261.252,270.377 257.5,269.5 Z"/></g>
<g><path style="opacity:1" fill="#16191f" d="M 147.5,257.5 C 147.833,257.5 148.167,257.5 148.5,257.5C 149.176,259.859 150.009,262.192 151,264.5C 152.458,265.747 153.958,265.747 155.5,264.5C 158.092,259.376 159.092,260.042 158.5,266.5C 155.813,266.641 152.98,266.641 150,266.5C 149.055,266.905 148.388,267.572 148,268.5C 146.883,267.051 146.216,265.384 146,263.5C 145.333,265.167 145.333,266.833 146,268.5C 149.788,271.612 153.622,273.945 157.5,275.5C 159.167,274.167 160.833,274.167 162.5,275.5C 162.833,274.833 163.167,274.167 163.5,273.5C 165.311,274.736 167.144,274.736 169,273.5C 170.098,272.616 170.598,271.616 170.5,270.5C 172.626,271.37 174.626,272.37 176.5,273.5C 174.5,275.5 172.5,277.5 170.5,279.5C 168.167,279.5 165.833,279.5 163.5,279.5C 156.241,278.748 149.574,276.414 143.5,272.5C 143.167,271.5 142.5,270.833 141.5,270.5C 139.246,269.876 137.579,268.543 136.5,266.5C 136.586,265.504 136.252,264.671 135.5,264C 136.416,263.722 137.082,263.222 137.5,262.5C 139.199,262.66 140.866,262.494 142.5,262C 143.696,261.346 143.696,260.846 142.5,260.5C 141.549,261.326 140.549,261.492 139.5,261C 142.025,259.281 144.692,258.114 147.5,257.5 Z"/></g>
<g><path style="opacity:0.504" fill="#fbfbfc" d="M 141.5,270.5 C 142.5,270.833 143.167,271.5 143.5,272.5C 142.167,272.5 141.5,271.833 141.5,270.5 Z"/></g>
<g><path style="opacity:1" fill="#b7bad1" d="M 178.5,270.5 C 178.068,271.71 177.401,272.71 176.5,273.5C 176.285,271.821 176.952,270.821 178.5,270.5 Z"/></g>
<g><path style="opacity:1" fill="#d6dddb" d="M 211.5,269.5 C 211.611,270.117 211.944,270.617 212.5,271C 210.984,272.897 210.317,275.064 210.5,277.5C 209.305,277.134 208.639,276.301 208.5,275C 209.14,272.88 210.14,271.046 211.5,269.5 Z"/></g>
<g><path style="opacity:1" fill="#3c403e" d="M 220.5,252.5 C 220.5,253.167 220.5,253.833 220.5,254.5C 219.2,255.601 218.7,256.934 219,258.5C 219.837,256.993 221.004,256.493 222.5,257C 220.844,258.829 218.844,260.163 216.5,261C 215.748,261.671 215.414,262.504 215.5,263.5C 214.525,265.795 213.192,267.795 211.5,269.5C 210.14,271.046 209.14,272.88 208.5,275C 208.639,276.301 209.305,277.134 210.5,277.5C 210.5,280.5 210.5,283.5 210.5,286.5C 209.596,285.791 209.263,284.791 209.5,283.5C 209.657,282.127 209.49,280.793 209,279.5C 208.026,281.878 207.359,281.544 207,278.5C 206.768,279.737 206.268,280.737 205.5,281.5C 204.833,281.5 204.167,281.5 203.5,281.5C 206.614,271.936 211.28,263.269 217.5,255.5C 218.167,255.5 218.5,255.167 218.5,254.5C 218.833,253.5 219.5,252.833 220.5,252.5 Z"/></g>
<g><path style="opacity:1" fill="#626c7a" d="M 250.5,274.5 C 249.232,276.047 247.565,277.047 245.5,277.5C 245.5,276.5 245.5,275.5 245.5,274.5C 247.167,274.5 248.833,274.5 250.5,274.5 Z"/></g>
<g><path style="opacity:1" fill="#fefffe" d="M 176.5,276.5 C 177.833,277.167 177.833,277.167 176.5,276.5 Z"/></g>
<g><path style="opacity:1" fill="#e5d7bd" d="M 220.5,254.5 C 221.609,254.557 222.609,254.89 223.5,255.5C 224.842,256.793 226.509,257.626 228.5,258C 226.866,258.494 225.199,258.66 223.5,258.5C 221.229,261.451 218.896,264.451 216.5,267.5C 214.058,272.053 214.725,276.22 218.5,280C 219.825,279.852 220.992,280.018 222,280.5C 223,279.167 224,277.833 225,276.5C 226,276.833 227,277.167 228,277.5C 229.681,275.452 231.181,273.285 232.5,271C 231.659,269.004 231.992,267.171 233.5,265.5C 234.08,274.126 230.247,280.126 222,283.5C 212.979,279.475 211.146,273.141 216.5,264.5C 216.376,263.893 216.043,263.56 215.5,263.5C 215.414,262.504 215.748,261.671 216.5,261C 218.844,260.163 220.844,258.829 222.5,257C 221.004,256.493 219.837,256.993 219,258.5C 218.7,256.934 219.2,255.601 220.5,254.5 Z"/></g>
<g><path style="opacity:1" fill="#616872" d="M 245.5,277.5 C 244.205,278.488 242.872,279.488 241.5,280.5C 241.586,279.504 241.252,278.671 240.5,278C 242.134,277.506 243.801,277.34 245.5,277.5 Z"/></g>
<g><path style="opacity:1" fill="#e9ebef" d="M 163.5,279.5 C 165.833,279.5 168.167,279.5 170.5,279.5C 170.217,280.289 169.717,280.956 169,281.5C 167.052,280.891 165.218,280.224 163.5,279.5 Z"/></g>
<g><path style="opacity:1" fill="#fefffe" d="M 167.5,282.5 C 168.833,283.167 168.833,283.167 167.5,282.5 Z"/></g>
<g><path style="opacity:1" fill="#0e1217" d="M 223.5,255.5 C 227.116,255.899 230.45,256.899 233.5,258.5C 233.389,259.117 233.056,259.617 232.5,260C 236.305,264.091 237.472,268.924 236,274.5C 235.667,274.167 235.333,273.833 235,273.5C 234.133,275.684 233.299,277.851 232.5,280C 234.108,282.492 235.774,284.992 237.5,287.5C 237.262,289.404 236.262,290.738 234.5,291.5C 233.5,291.833 232.833,292.5 232.5,293.5C 229.001,302.744 224.001,311.078 217.5,318.5C 216.147,320.183 214.48,321.516 212.5,322.5C 210.958,321.699 209.292,321.366 207.5,321.5C 207.856,324.564 207.023,327.231 205,329.5C 202.656,327.323 200.489,324.99 198.5,322.5C 198.938,322.565 199.272,322.399 199.5,322C 198.122,320.287 196.455,318.953 194.5,318C 196.891,317.309 196.891,316.309 194.5,315C 195.449,314.383 196.282,314.549 197,315.5C 197.44,313.924 198.273,312.59 199.5,311.5C 198.189,310.742 197.689,309.742 198,308.5C 198.333,308.833 198.667,309.167 199,309.5C 199.333,308.5 199.667,307.5 200,306.5C 201.731,310.971 204.731,312.637 209,311.5C 209.483,310.552 209.649,309.552 209.5,308.5C 210.167,308.833 210.833,309.167 211.5,309.5C 212.531,310.38 213.198,309.88 213.5,308C 210.688,305.188 207.855,302.355 205,299.5C 204.333,298.5 204.333,297.5 205,296.5C 208.567,299.702 212.734,301.368 217.5,301.5C 217.649,300.448 217.483,299.448 217,298.5C 212.002,295.015 208.835,290.348 207.5,284.5C 207.957,283.702 208.624,283.369 209.5,283.5C 209.263,284.791 209.596,285.791 210.5,286.5C 210.5,283.5 210.5,280.5 210.5,277.5C 210.317,275.064 210.984,272.897 212.5,271C 211.944,270.617 211.611,270.117 211.5,269.5C 213.192,267.795 214.525,265.795 215.5,263.5C 216.043,263.56 216.376,263.893 216.5,264.5C 211.146,273.141 212.979,279.475 222,283.5C 230.247,280.126 234.08,274.126 233.5,265.5C 231.509,261.177 228.175,258.843 223.5,258.5C 225.199,258.66 226.866,258.494 228.5,258C 226.509,257.626 224.842,256.793 223.5,255.5 Z"/></g>
<g><path style="opacity:1" fill="#fefffe" d="M 168.5,284.5 C 169.833,285.167 169.833,285.167 168.5,284.5 Z"/></g>
<g><path style="opacity:1" fill="#e9edf0" d="M 228.5,290.5 C 229.254,288.554 230.588,287.721 232.5,288C 231.529,289.481 230.196,290.315 228.5,290.5 Z"/></g>
<g><path style="opacity:1" fill="#fefffe" d="M 238.5,288.5 C 239.833,289.167 239.833,289.167 238.5,288.5 Z"/></g>
<g><path style="opacity:1" fill="#acbabc" d="M 210.5,286.5 C 212.296,287.793 213.963,289.293 215.5,291C 212.814,290.823 211.148,289.323 210.5,286.5 Z"/></g>
<g><path style="opacity:1" fill="#9aaac3" d="M 228.5,290.5 C 227.686,292.273 226.352,292.773 224.5,292C 225.745,291.209 227.078,290.709 228.5,290.5 Z"/></g>
<g><path style="opacity:0.669" fill="#fdfdfd" d="M 234.5,291.5 C 234.5,292.833 233.833,293.5 232.5,293.5C 232.833,292.5 233.5,291.833 234.5,291.5 Z"/></g>
<g><path style="opacity:1" fill="#fefffe" d="M 236.5,292.5 C 237.833,293.167 237.833,293.167 236.5,292.5 Z"/></g>
<g><path style="opacity:1" fill="#3d3b3a" d="M 203.5,281.5 C 204.167,281.5 204.833,281.5 205.5,281.5C 201.455,291.727 197.622,302.06 194,312.5C 193.309,310.109 192.309,310.109 191,312.5C 189.834,317.499 187.167,321.499 183,324.5C 182.616,326.197 182.782,327.863 183.5,329.5C 182.115,328.426 180.949,327.093 180,325.5C 179.667,325.833 179.333,326.167 179,326.5C 179.119,328.893 178.619,331.393 177.5,334C 177.648,335.256 177.982,336.423 178.5,337.5C 177.662,337.842 177.328,338.508 177.5,339.5C 176.131,337.309 175.131,334.975 174.5,332.5C 174.264,329.774 175.097,327.441 177,325.5C 182.741,320.594 187.574,314.927 191.5,308.5C 195.83,299.518 199.83,290.518 203.5,281.5 Z"/></g>
<g><path style="opacity:1" fill="#8ea5d7" d="M 200.5,315.5 C 201.497,314.287 202.497,314.454 203.5,316C 202.423,316.47 201.423,316.303 200.5,315.5 Z"/></g>
<g><path style="opacity:1" fill="#ead9b7" d="M 209.5,283.5 C 208.624,283.369 207.957,283.702 207.5,284.5C 208.835,290.348 212.002,295.015 217,298.5C 217.483,299.448 217.649,300.448 217.5,301.5C 212.734,301.368 208.567,299.702 205,296.5C 204.333,297.5 204.333,298.5 205,299.5C 207.855,302.355 210.688,305.188 213.5,308C 213.198,309.88 212.531,310.38 211.5,309.5C 208.121,305.782 204.954,301.782 202,297.5C 199.477,299.59 198.477,302.256 199,305.5C 199.718,304.549 200.551,304.383 201.5,305C 202.615,307.612 204.282,309.779 206.5,311.5C 207.735,310.66 208.735,309.66 209.5,308.5C 209.649,309.552 209.483,310.552 209,311.5C 204.731,312.637 201.731,310.971 200,306.5C 199.667,307.5 199.333,308.5 199,309.5C 198.667,309.167 198.333,308.833 198,308.5C 197.689,309.742 198.189,310.742 199.5,311.5C 198.273,312.59 197.44,313.924 197,315.5C 196.282,314.549 195.449,314.383 194.5,315C 196.891,316.309 196.891,317.309 194.5,318C 196.455,318.953 198.122,320.287 199.5,322C 199.272,322.399 198.938,322.565 198.5,322.5C 196.093,321.206 193.926,319.539 192,317.5C 193.237,320.776 195.403,323.609 198.5,326C 195.802,326.065 193.636,324.898 192,322.5C 192.607,324.582 193.44,326.749 194.5,329C 193.202,332.205 190.868,333.205 187.5,332C 186.016,331.338 184.683,330.504 183.5,329.5C 182.782,327.863 182.616,326.197 183,324.5C 187.167,321.499 189.834,317.499 191,312.5C 192.309,310.109 193.309,310.109 194,312.5C 197.622,302.06 201.455,291.727 205.5,281.5C 206.268,280.737 206.768,279.737 207,278.5C 207.359,281.544 208.026,281.878 209,279.5C 209.49,280.793 209.657,282.127 209.5,283.5 Z"/></g>
<g><path style="opacity:1" fill="#f9db9e" d="M 211.5,309.5 C 210.833,309.167 210.167,308.833 209.5,308.5C 208.735,309.66 207.735,310.66 206.5,311.5C 204.282,309.779 202.615,307.612 201.5,305C 200.551,304.383 199.718,304.549 199,305.5C 198.477,302.256 199.477,299.59 202,297.5C 204.954,301.782 208.121,305.782 211.5,309.5 Z"/></g>
<g><path style="opacity:1" fill="#fefffe" d="M 217.5,318.5 C 218.833,319.167 218.833,319.167 217.5,318.5 Z"/></g>
<g><path style="opacity:1" fill="#fefffe" d="M 177.5,320.5 C 178.833,321.167 178.833,321.167 177.5,320.5 Z"/></g>
<g><path style="opacity:1" fill="#fefffe" d="M 213.5,325.5 C 214.833,326.167 214.833,326.167 213.5,325.5 Z"/></g>
<g><path style="opacity:1" fill="#f5e0b4" d="M 183.5,329.5 C 183.859,331.371 184.859,332.871 186.5,334C 185.042,336.46 183.209,338.627 181,340.5C 179.955,339.627 179.122,338.627 178.5,337.5C 177.982,336.423 177.648,335.256 177.5,334C 178.619,331.393 179.119,328.893 179,326.5C 179.333,326.167 179.667,325.833 180,325.5C 180.949,327.093 182.115,328.426 183.5,329.5 Z"/></g>
<g><path style="opacity:0.504" fill="#eeeef1" d="M 174.5,338.5 C 175.674,339.514 176.34,340.847 176.5,342.5C 174.896,341.713 174.229,340.38 174.5,338.5 Z"/></g>
<g><path style="opacity:1" fill="#fefffe" d="M 205.5,339.5 C 206.833,340.167 206.833,340.167 205.5,339.5 Z"/></g>
<g><path style="opacity:1" fill="#16191c" d="M 198.5,322.5 C 200.489,324.99 202.656,327.323 205,329.5C 207.023,327.231 207.856,324.564 207.5,321.5C 209.292,321.366 210.958,321.699 212.5,322.5C 208.117,329.936 202.784,336.603 196.5,342.5C 195.167,343.167 194.167,344.167 193.5,345.5C 192.432,346.434 191.099,346.768 189.5,346.5C 187.5,346.5 185.5,346.5 183.5,346.5C 182.209,346.737 181.209,346.404 180.5,345.5C 180.158,344.662 179.492,344.328 178.5,344.5C 177.5,344.167 176.833,343.5 176.5,342.5C 176.34,340.847 175.674,339.514 174.5,338.5C 173.258,336.389 173.258,334.389 174.5,332.5C 175.131,334.975 176.131,337.309 177.5,339.5C 177.328,338.508 177.662,337.842 178.5,337.5C 179.122,338.627 179.955,339.627 181,340.5C 183.209,338.627 185.042,336.46 186.5,334C 184.859,332.871 183.859,331.371 183.5,329.5C 184.683,330.504 186.016,331.338 187.5,332C 190.868,333.205 193.202,332.205 194.5,329C 193.44,326.749 192.607,324.582 192,322.5C 193.636,324.898 195.802,326.065 198.5,326C 195.403,323.609 193.237,320.776 192,317.5C 193.926,319.539 196.093,321.206 198.5,322.5 Z"/></g>
<g><path style="opacity:1" fill="#b2b4cb" d="M 177.5,339.5 C 178.627,340.122 179.627,340.955 180.5,342C 178.511,342.519 177.511,341.686 177.5,339.5 Z"/></g>
<g><path style="opacity:1" fill="#f1f2f1" d="M 190.5,338.5 C 191.239,338.369 191.906,338.536 192.5,339C 191.534,340.678 190.201,341.345 188.5,341C 189.381,340.292 190.047,339.458 190.5,338.5 Z"/></g>
<g><path style="opacity:1" fill="#deded4" d="M 186.5,335.5 C 187.675,335.281 188.675,335.614 189.5,336.5C 188.444,338.646 186.944,340.312 185,341.5C 184.5,341.167 184,340.833 183.5,340.5C 184.952,339.06 185.952,337.394 186.5,335.5 Z"/></g>
<g><path style="opacity:0.504" fill="#f5f6f7" d="M 178.5,344.5 C 179.492,344.328 180.158,344.662 180.5,345.5C 179.075,347.031 178.409,346.698 178.5,344.5 Z"/></g>
<g><path style="opacity:0.504" fill="#f8fafb" d="M 196.5,342.5 C 196.5,344.5 195.5,345.5 193.5,345.5C 194.167,344.167 195.167,343.167 196.5,342.5 Z"/></g>
<g><path style="opacity:1" fill="#fbfbfc" d="M 183.5,346.5 C 185.5,346.5 187.5,346.5 189.5,346.5C 188.469,347.249 187.302,347.915 186,348.5C 185.333,347.167 184.667,347.167 184,348.5C 183.536,347.906 183.369,347.239 183.5,346.5 Z"/></g>
</svg>
