<?xml version="1.0" standalone="no"?>
<!DOCTYPE svg PUBLIC "-//W3C//DTD SVG 20010904//EN"
 "http://www.w3.org/TR/2001/REC-SVG-20010904/DTD/svg10.dtd">
<svg version="1.0" xmlns="http://www.w3.org/2000/svg"
 width="500.000000pt" height="500.000000pt" viewBox="0 0 500.000000 500.000000"
 preserveAspectRatio="xMidYMid meet">
<metadata>
Created by potrace 1.14, written by Peter Selinger 2001-2017
</metadata>
<g transform="translate(0.000000,500.000000) scale(0.100000,-0.100000)"
fill="#000000" stroke="none">
<path d="M2746 3460 c-17 -10 -36 -30 -43 -44 -35 -68 -49 -271 -25 -375 6
-24 8 -49 5 -56 -8 -21 -61 -38 -121 -39 -55 -1 -59 -3 -104 -50 -27 -27 -48
-53 -48 -59 0 -5 -8 -6 -17 -2 -32 14 -146 33 -244 42 -156 13 -260 -9 -328
-71 -33 -30 -107 -146 -129 -201 -10 -25 -22 -42 -27 -38 -4 4 -5 3 -1 -4 9
-16 -15 -61 -47 -92 -22 -20 -32 -22 -74 -17 -111 14 -155 3 -189 -50 -23 -34
-9 -63 58 -112 64 -47 135 -77 222 -96 l66 -13 55 60 c30 34 55 65 55 70 0 14
112 152 119 147 3 -3 6 3 6 12 0 20 71 98 88 98 7 0 19 -4 27 -10 9 -6 17 -5
21 2 4 6 23 2 55 -12 27 -13 54 -24 59 -25 22 -3 45 -18 45 -29 0 -13 -40 -42
-53 -38 -5 1 -6 -2 -2 -8 3 -6 -14 -41 -39 -79 -43 -63 -126 -235 -126 -259 0
-12 -89 -205 -98 -212 -4 -3 -20 -24 -36 -48 -17 -24 -39 -51 -51 -60 -39 -31
-74 -87 -80 -127 -13 -84 57 -152 145 -140 53 6 77 27 168 145 72 93 112 136
124 132 5 -1 7 1 6 5 -2 5 10 24 25 44 15 20 46 72 68 115 23 43 55 95 72 115
18 19 44 56 59 81 20 35 39 52 81 73 30 14 63 35 73 46 9 10 29 19 43 18 95
-2 157 4 171 15 13 12 79 26 131 29 9 1 15 6 13 12 -7 17 132 149 147 140 7
-5 10 -4 6 2 -16 26 25 34 194 36 148 3 182 7 226 24 29 11 54 19 57 17 4 -2
4 -1 2 2 -3 3 8 17 24 30 34 29 70 100 70 138 0 51 -52 116 -153 190 -20 15
-35 32 -31 37 3 5 0 8 -8 7 -8 -2 -12 4 -9 17 2 11 4 56 5 100 0 68 -4 88 -26
131 -68 131 -227 186 -344 120 l-47 -26 -29 27 c-21 20 -25 29 -16 36 10 6 9
7 -2 4 -8 -2 -32 11 -54 30 -70 63 -137 79 -190 43z"/>
</g>
</svg>
